<?xml version="1.0" encoding="utf-8" standalone="no"?>
<!DOCTYPE svg PUBLIC "-//W3C//DTD SVG 1.1//EN"
  "http://www.w3.org/Graphics/SVG/1.1/DTD/svg11.dtd">
<svg xmlns:xlink="http://www.w3.org/1999/xlink" width="1001.279375pt" height="497.659441pt" viewBox="0 0 1001.279375 497.659441" xmlns="http://www.w3.org/2000/svg" version="1.1">
 <metadata>
  <rdf:RDF xmlns:dc="http://purl.org/dc/elements/1.1/" xmlns:cc="http://creativecommons.org/ns#" xmlns:rdf="http://www.w3.org/1999/02/22-rdf-syntax-ns#">
   <cc:Work>
    <dc:type rdf:resource="http://purl.org/dc/dcmitype/StillImage"/>
    <dc:date>2026-09-15T00:12:51.024634</dc:date>
    <dc:format>image/svg+xml</dc:format>
    <dc:creator>
     <cc:Agent>
      <dc:title>Matplotlib v3.10.8, https://matplotlib.org/</dc:title>
     </cc:Agent>
    </dc:creator>
   </cc:Work>
  </rdf:RDF>
 </metadata>
 <defs>
  <style type="text/css">*{stroke-linejoin: round; stroke-linecap: butt}</style>
 </defs>
 <g id="figure_1">
  <g id="patch_1">
   <path d="M 0 497.659441 
L 1001.279375 497.659441 
L 1001.279375 0 
L 0 0 
z
" style="fill: #ffffff"/>
  </g>
  <g id="axes_1">
   <g id="patch_2">
    <path d="M 73.849375 272.494743 
L 994.079375 272.494743 
L 994.079375 32.955937 
L 73.849375 32.955937 
z
" style="fill: #ffffff"/>
   </g>
   <g id="matplotlib.axis_1">
    <g id="xtick_1">
     <g id="line2d_1">
      <path d="M 159.633528 272.494743 
L 159.633528 32.955937 
" clip-path="url(#pc5d7a56d20)" style="fill: none; stroke: #808080; stroke-opacity: 0.3; stroke-width: 0.8; stroke-linecap: square"/>
     </g>
     <g id="line2d_2">
      <defs>
       <path id="m0100959363" d="M 0 0 
L 0 3.5 
" style="stroke: #000000; stroke-width: 0.8"/>
      </defs>
      <g>
       <use xlink:href="#m0100959363" x="159.633528" y="272.494743" style="stroke: #000000; stroke-width: 0.8"/>
      </g>
     </g>
    </g>
    <g id="xtick_2">
     <g id="line2d_3">
      <path d="M 253.216239 272.494743 
L 253.216239 32.955937 
" clip-path="url(#pc5d7a56d20)" style="fill: none; stroke: #808080; stroke-opacity: 0.3; stroke-width: 0.8; stroke-linecap: square"/>
     </g>
     <g id="line2d_4">
      <g>
       <use xlink:href="#m0100959363" x="253.216239" y="272.494743" style="stroke: #000000; stroke-width: 0.8"/>
      </g>
     </g>
    </g>
    <g id="xtick_3">
     <g id="line2d_5">
      <path d="M 346.798951 272.494743 
L 346.798951 32.955937 
" clip-path="url(#pc5d7a56d20)" style="fill: none; stroke: #808080; stroke-opacity: 0.3; stroke-width: 0.8; stroke-linecap: square"/>
     </g>
     <g id="line2d_6">
      <g>
       <use xlink:href="#m0100959363" x="346.798951" y="272.494743" style="stroke: #000000; stroke-width: 0.8"/>
      </g>
     </g>
    </g>
    <g id="xtick_4">
     <g id="line2d_7">
      <path d="M 440.381663 272.494743 
L 440.381663 32.955937 
" clip-path="url(#pc5d7a56d20)" style="fill: none; stroke: #808080; stroke-opacity: 0.3; stroke-width: 0.8; stroke-linecap: square"/>
     </g>
     <g id="line2d_8">
      <g>
       <use xlink:href="#m0100959363" x="440.381663" y="272.494743" style="stroke: #000000; stroke-width: 0.8"/>
      </g>
     </g>
    </g>
    <g id="xtick_5">
     <g id="line2d_9">
      <path d="M 533.964375 272.494743 
L 533.964375 32.955937 
" clip-path="url(#pc5d7a56d20)" style="fill: none; stroke: #808080; stroke-opacity: 0.3; stroke-width: 0.8; stroke-linecap: square"/>
     </g>
     <g id="line2d_10">
      <g>
       <use xlink:href="#m0100959363" x="533.964375" y="272.494743" style="stroke: #000000; stroke-width: 0.8"/>
      </g>
     </g>
    </g>
    <g id="xtick_6">
     <g id="line2d_11">
      <path d="M 627.547087 272.494743 
L 627.547087 32.955937 
" clip-path="url(#pc5d7a56d20)" style="fill: none; stroke: #808080; stroke-opacity: 0.3; stroke-width: 0.8; stroke-linecap: square"/>
     </g>
     <g id="line2d_12">
      <g>
       <use xlink:href="#m0100959363" x="627.547087" y="272.494743" style="stroke: #000000; stroke-width: 0.8"/>
      </g>
     </g>
    </g>
    <g id="xtick_7">
     <g id="line2d_13">
      <path d="M 721.129799 272.494743 
L 721.129799 32.955937 
" clip-path="url(#pc5d7a56d20)" style="fill: none; stroke: #808080; stroke-opacity: 0.3; stroke-width: 0.8; stroke-linecap: square"/>
     </g>
     <g id="line2d_14">
      <g>
       <use xlink:href="#m0100959363" x="721.129799" y="272.494743" style="stroke: #000000; stroke-width: 0.8"/>
      </g>
     </g>
    </g>
    <g id="xtick_8">
     <g id="line2d_15">
      <path d="M 814.712511 272.494743 
L 814.712511 32.955937 
" clip-path="url(#pc5d7a56d20)" style="fill: none; stroke: #808080; stroke-opacity: 0.3; stroke-width: 0.8; stroke-linecap: square"/>
     </g>
     <g id="line2d_16">
      <g>
       <use xlink:href="#m0100959363" x="814.712511" y="272.494743" style="stroke: #000000; stroke-width: 0.8"/>
      </g>
     </g>
    </g>
    <g id="xtick_9">
     <g id="line2d_17">
      <path d="M 908.295222 272.494743 
L 908.295222 32.955937 
" clip-path="url(#pc5d7a56d20)" style="fill: none; stroke: #808080; stroke-opacity: 0.3; stroke-width: 0.8; stroke-linecap: square"/>
     </g>
     <g id="line2d_18">
      <g>
       <use xlink:href="#m0100959363" x="908.295222" y="272.494743" style="stroke: #000000; stroke-width: 0.8"/>
      </g>
     </g>
    </g>
   </g>
   <g id="matplotlib.axis_2">
    <g id="ytick_1">
     <g id="line2d_19">
      <path d="M 73.849375 272.494743 
L 994.079375 272.494743 
" clip-path="url(#pc5d7a56d20)" style="fill: none; stroke: #808080; stroke-opacity: 0.3; stroke-width: 0.8; stroke-linecap: square"/>
     </g>
     <g id="line2d_20">
      <defs>
       <path id="maf2ed93afe" d="M 0 0 
L -3.5 0 
" style="stroke: #000000; stroke-width: 0.8"/>
      </defs>
      <g>
       <use xlink:href="#maf2ed93afe" x="73.849375" y="272.494743" style="stroke: #000000; stroke-width: 0.8"/>
      </g>
     </g>
     <g id="text_1">
      <!-- 0 -->
      <g transform="translate(55.396875 279.333337) scale(0.18 -0.18)">
       <defs>
        <path id="DejaVuSans-30" d="M 2034 4250 
Q 1547 4250 1301 3770 
Q 1056 3291 1056 2328 
Q 1056 1369 1301 889 
Q 1547 409 2034 409 
Q 2525 409 2770 889 
Q 3016 1369 3016 2328 
Q 3016 3291 2770 3770 
Q 2525 4250 2034 4250 
z
M 2034 4750 
Q 2819 4750 3233 4129 
Q 3647 3509 3647 2328 
Q 3647 1150 3233 529 
Q 2819 -91 2034 -91 
Q 1250 -91 836 529 
Q 422 1150 422 2328 
Q 422 3509 836 4129 
Q 1250 4750 2034 4750 
z
" transform="scale(0.015625)"/>
       </defs>
       <use xlink:href="#DejaVuSans-30"/>
      </g>
     </g>
    </g>
    <g id="ytick_2">
     <g id="line2d_21">
      <path d="M 73.849375 212.610042 
L 994.079375 212.610042 
" clip-path="url(#pc5d7a56d20)" style="fill: none; stroke: #808080; stroke-opacity: 0.3; stroke-width: 0.8; stroke-linecap: square"/>
     </g>
     <g id="line2d_22">
      <g>
       <use xlink:href="#maf2ed93afe" x="73.849375" y="212.610042" style="stroke: #000000; stroke-width: 0.8"/>
      </g>
     </g>
     <g id="text_2">
      <!-- 50 -->
      <g transform="translate(43.944375 219.448636) scale(0.18 -0.18)">
       <defs>
        <path id="DejaVuSans-35" d="M 691 4666 
L 3169 4666 
L 3169 4134 
L 1269 4134 
L 1269 2991 
Q 1406 3038 1543 3061 
Q 1681 3084 1819 3084 
Q 2600 3084 3056 2656 
Q 3513 2228 3513 1497 
Q 3513 744 3044 326 
Q 2575 -91 1722 -91 
Q 1428 -91 1123 -41 
Q 819 9 494 109 
L 494 744 
Q 775 591 1075 516 
Q 1375 441 1709 441 
Q 2250 441 2565 725 
Q 2881 1009 2881 1497 
Q 2881 1984 2565 2268 
Q 2250 2553 1709 2553 
Q 1456 2553 1204 2497 
Q 953 2441 691 2322 
L 691 4666 
z
" transform="scale(0.015625)"/>
       </defs>
       <use xlink:href="#DejaVuSans-35"/>
       <use xlink:href="#DejaVuSans-30" transform="translate(63.623047 0)"/>
      </g>
     </g>
    </g>
    <g id="ytick_3">
     <g id="line2d_23">
      <path d="M 73.849375 152.72534 
L 994.079375 152.72534 
" clip-path="url(#pc5d7a56d20)" style="fill: none; stroke: #808080; stroke-opacity: 0.3; stroke-width: 0.8; stroke-linecap: square"/>
     </g>
     <g id="line2d_24">
      <g>
       <use xlink:href="#maf2ed93afe" x="73.849375" y="152.72534" style="stroke: #000000; stroke-width: 0.8"/>
      </g>
     </g>
     <g id="text_3">
      <!-- 100 -->
      <g transform="translate(32.491875 159.563934) scale(0.18 -0.18)">
       <defs>
        <path id="DejaVuSans-31" d="M 794 531 
L 1825 531 
L 1825 4091 
L 703 3866 
L 703 4441 
L 1819 4666 
L 2450 4666 
L 2450 531 
L 3481 531 
L 3481 0 
L 794 0 
L 794 531 
z
" transform="scale(0.015625)"/>
       </defs>
       <use xlink:href="#DejaVuSans-31"/>
       <use xlink:href="#DejaVuSans-30" transform="translate(63.623047 0)"/>
       <use xlink:href="#DejaVuSans-30" transform="translate(127.246094 0)"/>
      </g>
     </g>
    </g>
    <g id="ytick_4">
     <g id="line2d_25">
      <path d="M 73.849375 92.840639 
L 994.079375 92.840639 
" clip-path="url(#pc5d7a56d20)" style="fill: none; stroke: #808080; stroke-opacity: 0.3; stroke-width: 0.8; stroke-linecap: square"/>
     </g>
     <g id="line2d_26">
      <g>
       <use xlink:href="#maf2ed93afe" x="73.849375" y="92.840639" style="stroke: #000000; stroke-width: 0.8"/>
      </g>
     </g>
     <g id="text_4">
      <!-- 150 -->
      <g transform="translate(32.491875 99.679233) scale(0.18 -0.18)">
       <use xlink:href="#DejaVuSans-31"/>
       <use xlink:href="#DejaVuSans-35" transform="translate(63.623047 0)"/>
       <use xlink:href="#DejaVuSans-30" transform="translate(127.246094 0)"/>
      </g>
     </g>
    </g>
    <g id="ytick_5">
     <g id="line2d_27">
      <path d="M 73.849375 32.955937 
L 994.079375 32.955937 
" clip-path="url(#pc5d7a56d20)" style="fill: none; stroke: #808080; stroke-opacity: 0.3; stroke-width: 0.8; stroke-linecap: square"/>
     </g>
     <g id="line2d_28">
      <g>
       <use xlink:href="#maf2ed93afe" x="73.849375" y="32.955937" style="stroke: #000000; stroke-width: 0.8"/>
      </g>
     </g>
     <g id="text_5">
      <!-- 200 -->
      <g transform="translate(32.491875 39.794531) scale(0.18 -0.18)">
       <defs>
        <path id="DejaVuSans-32" d="M 1228 531 
L 3431 531 
L 3431 0 
L 469 0 
L 469 531 
Q 828 903 1448 1529 
Q 2069 2156 2228 2338 
Q 2531 2678 2651 2914 
Q 2772 3150 2772 3378 
Q 2772 3750 2511 3984 
Q 2250 4219 1831 4219 
Q 1534 4219 1204 4116 
Q 875 4013 500 3803 
L 500 4441 
Q 881 4594 1212 4672 
Q 1544 4750 1819 4750 
Q 2544 4750 2975 4387 
Q 3406 4025 3406 3419 
Q 3406 3131 3298 2873 
Q 3191 2616 2906 2266 
Q 2828 2175 2409 1742 
Q 1991 1309 1228 531 
z
" transform="scale(0.015625)"/>
       </defs>
       <use xlink:href="#DejaVuSans-32"/>
       <use xlink:href="#DejaVuSans-30" transform="translate(63.623047 0)"/>
       <use xlink:href="#DejaVuSans-30" transform="translate(127.246094 0)"/>
      </g>
     </g>
    </g>
    <g id="text_6">
     <!-- Intensity (knots) -->
     <g transform="translate(23.916563 242.796434) rotate(-90) scale(0.22 -0.22)">
      <defs>
       <path id="DejaVuSans-49" d="M 628 4666 
L 1259 4666 
L 1259 0 
L 628 0 
L 628 4666 
z
" transform="scale(0.015625)"/>
       <path id="DejaVuSans-6e" d="M 3513 2113 
L 3513 0 
L 2938 0 
L 2938 2094 
Q 2938 2591 2744 2837 
Q 2550 3084 2163 3084 
Q 1697 3084 1428 2787 
Q 1159 2491 1159 1978 
L 1159 0 
L 581 0 
L 581 3500 
L 1159 3500 
L 1159 2956 
Q 1366 3272 1645 3428 
Q 1925 3584 2291 3584 
Q 2894 3584 3203 3211 
Q 3513 2838 3513 2113 
z
" transform="scale(0.015625)"/>
       <path id="DejaVuSans-74" d="M 1172 4494 
L 1172 3500 
L 2356 3500 
L 2356 3053 
L 1172 3053 
L 1172 1153 
Q 1172 725 1289 603 
Q 1406 481 1766 481 
L 2356 481 
L 2356 0 
L 1766 0 
Q 1100 0 847 248 
Q 594 497 594 1153 
L 594 3053 
L 172 3053 
L 172 3500 
L 594 3500 
L 594 4494 
L 1172 4494 
z
" transform="scale(0.015625)"/>
       <path id="DejaVuSans-65" d="M 3597 1894 
L 3597 1613 
L 953 1613 
Q 991 1019 1311 708 
Q 1631 397 2203 397 
Q 2534 397 2845 478 
Q 3156 559 3463 722 
L 3463 178 
Q 3153 47 2828 -22 
Q 2503 -91 2169 -91 
Q 1331 -91 842 396 
Q 353 884 353 1716 
Q 353 2575 817 3079 
Q 1281 3584 2069 3584 
Q 2775 3584 3186 3129 
Q 3597 2675 3597 1894 
z
M 3022 2063 
Q 3016 2534 2758 2815 
Q 2500 3097 2075 3097 
Q 1594 3097 1305 2825 
Q 1016 2553 972 2059 
L 3022 2063 
z
" transform="scale(0.015625)"/>
       <path id="DejaVuSans-73" d="M 2834 3397 
L 2834 2853 
Q 2591 2978 2328 3040 
Q 2066 3103 1784 3103 
Q 1356 3103 1142 2972 
Q 928 2841 928 2578 
Q 928 2378 1081 2264 
Q 1234 2150 1697 2047 
L 1894 2003 
Q 2506 1872 2764 1633 
Q 3022 1394 3022 966 
Q 3022 478 2636 193 
Q 2250 -91 1575 -91 
Q 1294 -91 989 -36 
Q 684 19 347 128 
L 347 722 
Q 666 556 975 473 
Q 1284 391 1588 391 
Q 1994 391 2212 530 
Q 2431 669 2431 922 
Q 2431 1156 2273 1281 
Q 2116 1406 1581 1522 
L 1381 1569 
Q 847 1681 609 1914 
Q 372 2147 372 2553 
Q 372 3047 722 3315 
Q 1072 3584 1716 3584 
Q 2034 3584 2315 3537 
Q 2597 3491 2834 3397 
z
" transform="scale(0.015625)"/>
       <path id="DejaVuSans-69" d="M 603 3500 
L 1178 3500 
L 1178 0 
L 603 0 
L 603 3500 
z
M 603 4863 
L 1178 4863 
L 1178 4134 
L 603 4134 
L 603 4863 
z
" transform="scale(0.015625)"/>
       <path id="DejaVuSans-79" d="M 2059 -325 
Q 1816 -950 1584 -1140 
Q 1353 -1331 966 -1331 
L 506 -1331 
L 506 -850 
L 844 -850 
Q 1081 -850 1212 -737 
Q 1344 -625 1503 -206 
L 1606 56 
L 191 3500 
L 800 3500 
L 1894 763 
L 2988 3500 
L 3597 3500 
L 2059 -325 
z
" transform="scale(0.015625)"/>
       <path id="DejaVuSans-20" transform="scale(0.015625)"/>
       <path id="DejaVuSans-28" d="M 1984 4856 
Q 1566 4138 1362 3434 
Q 1159 2731 1159 2009 
Q 1159 1288 1364 580 
Q 1569 -128 1984 -844 
L 1484 -844 
Q 1016 -109 783 600 
Q 550 1309 550 2009 
Q 550 2706 781 3412 
Q 1013 4119 1484 4856 
L 1984 4856 
z
" transform="scale(0.015625)"/>
       <path id="DejaVuSans-6b" d="M 581 4863 
L 1159 4863 
L 1159 1991 
L 2875 3500 
L 3609 3500 
L 1753 1863 
L 3688 0 
L 2938 0 
L 1159 1709 
L 1159 0 
L 581 0 
L 581 4863 
z
" transform="scale(0.015625)"/>
       <path id="DejaVuSans-6f" d="M 1959 3097 
Q 1497 3097 1228 2736 
Q 959 2375 959 1747 
Q 959 1119 1226 758 
Q 1494 397 1959 397 
Q 2419 397 2687 759 
Q 2956 1122 2956 1747 
Q 2956 2369 2687 2733 
Q 2419 3097 1959 3097 
z
M 1959 3584 
Q 2709 3584 3137 3096 
Q 3566 2609 3566 1747 
Q 3566 888 3137 398 
Q 2709 -91 1959 -91 
Q 1206 -91 779 398 
Q 353 888 353 1747 
Q 353 2609 779 3096 
Q 1206 3584 1959 3584 
z
" transform="scale(0.015625)"/>
       <path id="DejaVuSans-29" d="M 513 4856 
L 1013 4856 
Q 1481 4119 1714 3412 
Q 1947 2706 1947 2009 
Q 1947 1309 1714 600 
Q 1481 -109 1013 -844 
L 513 -844 
Q 928 -128 1133 580 
Q 1338 1288 1338 2009 
Q 1338 2731 1133 3434 
Q 928 4138 513 4856 
z
" transform="scale(0.015625)"/>
      </defs>
      <use xlink:href="#DejaVuSans-49"/>
      <use xlink:href="#DejaVuSans-6e" transform="translate(29.492188 0)"/>
      <use xlink:href="#DejaVuSans-74" transform="translate(92.871094 0)"/>
      <use xlink:href="#DejaVuSans-65" transform="translate(132.080078 0)"/>
      <use xlink:href="#DejaVuSans-6e" transform="translate(193.603516 0)"/>
      <use xlink:href="#DejaVuSans-73" transform="translate(256.982422 0)"/>
      <use xlink:href="#DejaVuSans-69" transform="translate(309.082031 0)"/>
      <use xlink:href="#DejaVuSans-74" transform="translate(336.865234 0)"/>
      <use xlink:href="#DejaVuSans-79" transform="translate(376.074219 0)"/>
      <use xlink:href="#DejaVuSans-20" transform="translate(435.253906 0)"/>
      <use xlink:href="#DejaVuSans-28" transform="translate(467.041016 0)"/>
      <use xlink:href="#DejaVuSans-6b" transform="translate(506.054688 0)"/>
      <use xlink:href="#DejaVuSans-6e" transform="translate(563.964844 0)"/>
      <use xlink:href="#DejaVuSans-6f" transform="translate(627.34375 0)"/>
      <use xlink:href="#DejaVuSans-74" transform="translate(688.525391 0)"/>
      <use xlink:href="#DejaVuSans-73" transform="translate(727.734375 0)"/>
      <use xlink:href="#DejaVuSans-29" transform="translate(779.833984 0)"/>
     </g>
    </g>
   </g>
   <g id="line2d_29">
    <path d="M 73.849375 235.224397 
L 81.647934 234.017838 
L 89.446494 232.970965 
L 97.245053 231.924098 
L 105.043612 230.983687 
L 112.842172 230.575583 
L 120.640731 230.575583 
L 128.43929 230.575583 
L 136.23785 230.575583 
L 144.036409 230.575583 
L 151.834968 230.575583 
L 159.633528 230.575583 
L 167.432087 230.575583 
L 175.230646 230.575583 
L 183.029206 230.575583 
L 190.827765 230.575583 
L 198.626324 230.575583 
L 206.424883 230.575583 
L 214.223443 229.85697 
L 222.022002 228.339897 
L 229.820561 226.982515 
L 237.619121 226.148567 
L 245.41768 225.421081 
L 253.216239 224.587133 
L 261.014799 223.442675 
L 268.813358 222.138522 
L 276.611917 220.994064 
L 284.410477 220.160116 
L 292.209036 219.43263 
L 300.007595 218.598682 
L 307.806155 217.454224 
L 315.604714 216.150071 
L 323.403273 215.005613 
L 331.201833 214.171665 
L 339.000392 213.444179 
L 346.798951 212.610231 
L 354.597511 211.465773 
L 362.39607 210.16162 
L 370.194629 209.017162 
L 377.993189 208.22377 
L 385.791748 207.536839 
L 393.590307 206.62178 
L 401.388867 205.005847 
L 409.187426 202.819588 
L 416.985985 200.633329 
L 424.784544 198.526281 
L 432.583104 196.419237 
L 440.381663 194.644874 
L 448.180222 193.26088 
L 455.978782 192.076497 
L 463.777341 191.051806 
L 471.5759 190.004938 
L 479.37446 189.064527 
L 487.173019 188.656423 
L 494.971578 188.656423 
L 502.770138 188.656423 
L 510.568697 188.656423 
L 518.367256 188.656423 
L 526.165816 188.656423 
L 533.964375 188.656423 
L 541.762934 187.93781 
L 549.561494 186.420741 
L 557.360053 185.063355 
L 565.158612 184.269962 
L 572.957172 183.583036 
L 580.755731 182.667973 
L 588.55429 181.052049 
L 596.35285 178.865781 
L 604.151409 176.679522 
L 611.949968 174.831242 
L 619.748528 172.982953 
L 627.547087 170.691071 
L 635.345646 167.290225 
L 643.144206 163.002202 
L 650.942765 158.71417 
L 658.741324 154.623298 
L 666.539883 150.532417 
L 674.338443 146.737268 
L 682.137002 143.338393 
L 689.935561 140.176093 
L 697.734121 137.155749 
L 705.53268 133.657308 
L 713.331239 130.283078 
L 721.129799 128.771916 
L 728.928358 128.771916 
L 736.726917 128.771916 
L 744.525477 128.771916 
L 752.324036 138.155476 
L 760.122595 158.71417 
L 767.921155 176.679522 
L 775.719714 186.619047 
L 783.518273 194.006403 
L 791.316833 200.633329 
L 799.115392 208.019647 
L 806.913951 214.835633 
L 814.712511 218.598682 
L 822.51107 219.633027 
L 830.309629 220.260317 
L 838.108189 220.994064 
L 845.906748 222.351446 
L 853.705307 223.868519 
L 861.503867 224.587133 
L 869.302426 224.587133 
L 877.100985 224.587133 
L 884.899544 224.587133 
L 892.698104 224.587133 
L 900.496663 224.587133 
L 908.295222 224.587133 
L 916.093782 225.696106 
L 923.892341 228.135845 
L 931.6909 230.575583 
L 939.48946 232.761847 
L 947.288019 234.948106 
L 955.086578 236.564036 
L 962.885138 237.479098 
L 970.683697 238.166026 
L 978.482256 238.959416 
L 986.280816 240.103876 
L 994.079375 241.408027 
" clip-path="url(#pc5d7a56d20)" style="fill: none; stroke: #000000; stroke-opacity: 0.95; stroke-width: 2.6; stroke-linecap: square"/>
   </g>
   <g id="line2d_30">
    <path d="M 73.849375 233.9324 
L 81.647934 232.926523 
L 89.446494 231.884615 
L 97.245053 230.949526 
L 105.043612 230.581245 
L 112.842172 230.615466 
L 120.640731 230.634387 
L 128.43929 230.65576 
L 136.23785 230.613165 
L 144.036409 230.73543 
L 151.834968 230.759774 
L 159.633528 230.849869 
L 167.432087 230.784639 
L 175.230646 230.71118 
L 183.029206 230.725634 
L 190.827765 230.739005 
L 198.626324 230.762673 
L 206.424883 230.068763 
L 214.223443 228.518465 
L 222.022002 227.15012 
L 229.820561 225.969928 
L 237.619121 225.437752 
L 245.41768 224.536146 
L 253.216239 223.474433 
L 261.014799 222.090935 
L 268.813358 220.985389 
L 276.611917 220.31084 
L 284.410477 219.504976 
L 292.209036 218.724674 
L 300.007595 217.456779 
L 307.806155 216.143629 
L 315.604714 214.849591 
L 323.403273 213.881718 
L 331.201833 213.483714 
L 339.000392 212.623812 
L 346.798951 211.393017 
L 354.597511 210.107462 
L 362.39607 208.987519 
L 370.194629 208.382413 
L 377.993189 207.795589 
L 385.791748 206.975137 
L 393.590307 205.277806 
L 401.388867 203.052273 
L 409.187426 200.859651 
L 416.985985 199.317157 
L 424.784544 196.71055 
L 432.583104 194.880112 
L 440.381663 193.319532 
L 448.180222 192.00219 
L 455.978782 190.707938 
L 463.777341 189.936939 
L 471.5759 189.193605 
L 479.37446 188.607493 
L 487.173019 187.895759 
L 494.971578 186.992317 
L 502.770138 186.108104 
L 510.568697 185.186377 
L 518.367256 184.315703 
L 526.165816 183.728329 
L 533.964375 183.104922 
L 541.762934 182.040801 
L 549.561494 180.954379 
L 557.360053 179.348582 
L 565.158612 177.614498 
L 572.957172 175.189787 
L 580.755731 173.108807 
L 588.55429 170.960627 
L 596.35285 168.381891 
L 604.151409 166.267555 
L 611.949968 163.897742 
L 619.748528 161.463093 
L 627.547087 158.797584 
L 635.345646 156.524349 
L 643.144206 154.07642 
L 650.942765 152.211658 
L 658.741324 150.007208 
L 666.539883 148.687521 
L 674.338443 147.389716 
L 682.137002 145.608588 
L 689.935561 144.522836 
L 697.734121 143.434117 
L 705.53268 142.390206 
L 713.331239 141.121974 
L 721.129799 137.831953 
L 728.928358 135.573559 
L 736.726917 134.651773 
L 744.525477 143.548266 
L 752.324036 154.093122 
L 760.122595 163.444178 
L 767.921155 174.229863 
L 775.719714 183.330148 
L 783.518273 191.167772 
L 791.316833 197.974864 
L 799.115392 204.093674 
L 806.913951 209.611994 
L 814.712511 215.521323 
L 822.51107 221.359517 
L 830.309629 226.448059 
L 838.108189 230.421581 
L 845.906748 233.398451 
L 853.705307 235.607906 
L 861.503867 237.444927 
L 869.302426 239.036581 
L 877.100985 240.45324 
L 884.899544 241.750426 
L 892.698104 242.950124 
L 900.496663 244.057414 
L 908.295222 245.068114 
L 916.093782 245.992586 
L 923.892341 246.840144 
L 931.6909 247.619782 
L 939.48946 248.939459 
L 947.288019 250.343806 
L 955.086578 251.417551 
L 962.885138 252.360567 
L 970.683697 253.339804 
L 978.482256 254.393518 
L 986.280816 255.544781 
L 994.079375 255.768172 
" clip-path="url(#pc5d7a56d20)" style="fill: none; stroke: #3a86ff; stroke-opacity: 0.95; stroke-width: 2.6; stroke-linecap: square"/>
   </g>
   <g id="line2d_31">
    <path d="M 73.849375 233.94333 
L 81.647934 232.957058 
L 89.446494 231.937109 
L 97.245053 231.005277 
L 105.043612 230.627844 
L 112.842172 230.586123 
L 120.640731 230.566398 
L 128.43929 230.608847 
L 136.23785 230.647776 
L 144.036409 230.642218 
L 151.834968 230.674818 
L 159.633528 230.684005 
L 167.432087 230.67325 
L 175.230646 230.659276 
L 183.029206 230.723176 
L 190.827765 230.752215 
L 198.626324 230.802539 
L 206.424883 230.062 
L 214.223443 228.525675 
L 222.022002 227.20198 
L 229.820561 226.361521 
L 237.619121 225.462449 
L 245.41768 224.663024 
L 253.216239 223.52252 
L 261.014799 222.184296 
L 268.813358 221.106062 
L 276.611917 220.287879 
L 284.410477 219.518965 
L 292.209036 218.658169 
L 300.007595 217.388739 
L 307.806155 216.025593 
L 315.604714 214.85608 
L 323.403273 214.273607 
L 331.201833 213.403575 
L 339.000392 212.576223 
L 346.798951 211.469793 
L 354.597511 210.120127 
L 362.39607 209.061734 
L 370.194629 208.402218 
L 377.993189 207.85943 
L 385.791748 206.977384 
L 393.590307 205.293465 
L 401.388867 203.050886 
L 409.187426 200.830751 
L 416.985985 199.558615 
L 424.784544 196.67041 
L 432.583104 194.89 
L 440.381663 192.961195 
L 448.180222 191.227828 
L 455.978782 189.488152 
L 463.777341 188.302502 
L 471.5759 187.411848 
L 479.37446 186.632665 
L 487.173019 185.758957 
L 494.971578 184.607286 
L 502.770138 183.297928 
L 510.568697 181.806139 
L 518.367256 180.037719 
L 526.165816 178.424968 
L 533.964375 176.846117 
L 541.762934 175.081697 
L 549.561494 173.24835 
L 557.360053 171.212609 
L 565.158612 169.029644 
L 572.957172 166.626916 
L 580.755731 164.121436 
L 588.55429 161.582402 
L 596.35285 158.732217 
L 604.151409 155.66511 
L 611.949968 152.523324 
L 619.748528 149.280358 
L 627.547087 146.108543 
L 635.345646 142.915109 
L 643.144206 139.907541 
L 650.942765 137.094083 
L 658.741324 134.672974 
L 666.539883 132.598083 
L 674.338443 130.6675 
L 682.137002 128.82953 
L 689.935561 127.392193 
L 697.734121 126.154379 
L 705.53268 124.703403 
L 713.331239 123.787344 
L 721.129799 121.461051 
L 728.928358 119.953116 
L 736.726917 120.213409 
L 744.525477 131.102235 
L 752.324036 144.081665 
L 760.122595 155.914496 
L 767.921155 168.82855 
L 775.719714 179.460897 
L 783.518273 188.401248 
L 791.316833 195.999447 
L 799.115392 202.704505 
L 806.913951 208.660609 
L 814.712511 214.953195 
L 822.51107 221.086926 
L 830.309629 226.36822 
L 838.108189 230.452358 
L 845.906748 233.490169 
L 853.705307 235.733623 
L 861.503867 237.592553 
L 869.302426 239.19919 
L 877.100985 240.626418 
L 884.899544 241.930614 
L 892.698104 243.134915 
L 900.496663 244.245701 
L 908.295222 245.258919 
L 916.093782 246.185166 
L 923.892341 247.033964 
L 931.6909 247.814431 
L 939.48946 249.5937 
L 947.288019 251.054038 
L 955.086578 252.152756 
L 962.885138 253.072631 
L 970.683697 253.993415 
L 978.482256 254.982502 
L 986.280816 256.022183 
L 994.079375 256.142674 
" clip-path="url(#pc5d7a56d20)" style="fill: none; stroke: #5ec64a; stroke-opacity: 0.95; stroke-width: 2.6; stroke-linecap: square"/>
   </g>
   <g id="patch_3">
    <path d="M 73.849375 272.494743 
L 73.849375 32.955937 
" style="fill: none; stroke: #000000; stroke-width: 0.8; stroke-linejoin: miter; stroke-linecap: square"/>
   </g>
   <g id="patch_4">
    <path d="M 994.079375 272.494743 
L 994.079375 32.955937 
" style="fill: none; stroke: #000000; stroke-width: 0.8; stroke-linejoin: miter; stroke-linecap: square"/>
   </g>
   <g id="patch_5">
    <path d="M 73.849375 272.494743 
L 994.079375 272.494743 
" style="fill: none; stroke: #000000; stroke-width: 0.8; stroke-linejoin: miter; stroke-linecap: square"/>
   </g>
   <g id="patch_6">
    <path d="M 73.849375 32.955937 
L 994.079375 32.955937 
" style="fill: none; stroke: #000000; stroke-width: 0.8; stroke-linejoin: miter; stroke-linecap: square"/>
   </g>
   <g id="text_7">
    <!-- 2024 HELENE -->
    <g transform="translate(436.574063 26.955937) scale(0.26 -0.26)">
     <defs>
      <path id="DejaVuSans-Bold-32" d="M 1844 884 
L 3897 884 
L 3897 0 
L 506 0 
L 506 884 
L 2209 2388 
Q 2438 2594 2547 2791 
Q 2656 2988 2656 3200 
Q 2656 3528 2436 3728 
Q 2216 3928 1850 3928 
Q 1569 3928 1234 3808 
Q 900 3688 519 3450 
L 519 4475 
Q 925 4609 1322 4679 
Q 1719 4750 2100 4750 
Q 2938 4750 3402 4381 
Q 3866 4013 3866 3353 
Q 3866 2972 3669 2642 
Q 3472 2313 2841 1759 
L 1844 884 
z
" transform="scale(0.015625)"/>
      <path id="DejaVuSans-Bold-30" d="M 2944 2338 
Q 2944 3213 2780 3570 
Q 2616 3928 2228 3928 
Q 1841 3928 1675 3570 
Q 1509 3213 1509 2338 
Q 1509 1453 1675 1090 
Q 1841 728 2228 728 
Q 2613 728 2778 1090 
Q 2944 1453 2944 2338 
z
M 4147 2328 
Q 4147 1169 3647 539 
Q 3147 -91 2228 -91 
Q 1306 -91 806 539 
Q 306 1169 306 2328 
Q 306 3491 806 4120 
Q 1306 4750 2228 4750 
Q 3147 4750 3647 4120 
Q 4147 3491 4147 2328 
z
" transform="scale(0.015625)"/>
      <path id="DejaVuSans-Bold-34" d="M 2356 3675 
L 1038 1722 
L 2356 1722 
L 2356 3675 
z
M 2156 4666 
L 3494 4666 
L 3494 1722 
L 4159 1722 
L 4159 850 
L 3494 850 
L 3494 0 
L 2356 0 
L 2356 850 
L 288 850 
L 288 1881 
L 2156 4666 
z
" transform="scale(0.015625)"/>
      <path id="DejaVuSans-Bold-20" transform="scale(0.015625)"/>
      <path id="DejaVuSans-Bold-48" d="M 588 4666 
L 1791 4666 
L 1791 2888 
L 3566 2888 
L 3566 4666 
L 4769 4666 
L 4769 0 
L 3566 0 
L 3566 1978 
L 1791 1978 
L 1791 0 
L 588 0 
L 588 4666 
z
" transform="scale(0.015625)"/>
      <path id="DejaVuSans-Bold-45" d="M 588 4666 
L 3834 4666 
L 3834 3756 
L 1791 3756 
L 1791 2888 
L 3713 2888 
L 3713 1978 
L 1791 1978 
L 1791 909 
L 3903 909 
L 3903 0 
L 588 0 
L 588 4666 
z
" transform="scale(0.015625)"/>
      <path id="DejaVuSans-Bold-4c" d="M 588 4666 
L 1791 4666 
L 1791 909 
L 3903 909 
L 3903 0 
L 588 0 
L 588 4666 
z
" transform="scale(0.015625)"/>
      <path id="DejaVuSans-Bold-4e" d="M 588 4666 
L 1931 4666 
L 3628 1466 
L 3628 4666 
L 4769 4666 
L 4769 0 
L 3425 0 
L 1728 3200 
L 1728 0 
L 588 0 
L 588 4666 
z
" transform="scale(0.015625)"/>
     </defs>
     <use xlink:href="#DejaVuSans-Bold-32"/>
     <use xlink:href="#DejaVuSans-Bold-30" transform="translate(69.580078 0)"/>
     <use xlink:href="#DejaVuSans-Bold-32" transform="translate(139.160156 0)"/>
     <use xlink:href="#DejaVuSans-Bold-34" transform="translate(208.740234 0)"/>
     <use xlink:href="#DejaVuSans-Bold-20" transform="translate(278.320312 0)"/>
     <use xlink:href="#DejaVuSans-Bold-48" transform="translate(313.134766 0)"/>
     <use xlink:href="#DejaVuSans-Bold-45" transform="translate(396.826172 0)"/>
     <use xlink:href="#DejaVuSans-Bold-4c" transform="translate(465.136719 0)"/>
     <use xlink:href="#DejaVuSans-Bold-45" transform="translate(528.857422 0)"/>
     <use xlink:href="#DejaVuSans-Bold-4e" transform="translate(597.167969 0)"/>
     <use xlink:href="#DejaVuSans-Bold-45" transform="translate(680.859375 0)"/>
    </g>
   </g>
   <g id="legend_1">
    <g id="patch_7">
     <path d="M 829.4075 137.580938 
L 980.079375 137.580938 
Q 984.079375 137.580938 984.079375 133.580938 
L 984.079375 46.955938 
Q 984.079375 42.955938 980.079375 42.955938 
L 829.4075 42.955938 
Q 825.4075 42.955938 825.4075 46.955938 
L 825.4075 133.580938 
Q 825.4075 137.580938 829.4075 137.580938 
z
" style="fill: #ffffff; opacity: 0.9; stroke: #cccccc; stroke-linejoin: miter"/>
    </g>
    <g id="line2d_32">
     <path d="M 833.4075 59.152812 
L 853.4075 59.152812 
L 873.4075 59.152812 
" style="fill: none; stroke: #000000; stroke-opacity: 0.95; stroke-width: 2.6; stroke-linecap: square"/>
    </g>
    <g id="text_8">
     <!-- IBTrACS -->
     <g transform="translate(889.4075 66.152812) scale(0.2 -0.2)">
      <defs>
       <path id="DejaVuSans-42" d="M 1259 2228 
L 1259 519 
L 2272 519 
Q 2781 519 3026 730 
Q 3272 941 3272 1375 
Q 3272 1813 3026 2020 
Q 2781 2228 2272 2228 
L 1259 2228 
z
M 1259 4147 
L 1259 2741 
L 2194 2741 
Q 2656 2741 2882 2914 
Q 3109 3088 3109 3444 
Q 3109 3797 2882 3972 
Q 2656 4147 2194 4147 
L 1259 4147 
z
M 628 4666 
L 2241 4666 
Q 2963 4666 3353 4366 
Q 3744 4066 3744 3513 
Q 3744 3084 3544 2831 
Q 3344 2578 2956 2516 
Q 3422 2416 3680 2098 
Q 3938 1781 3938 1306 
Q 3938 681 3513 340 
Q 3088 0 2303 0 
L 628 0 
L 628 4666 
z
" transform="scale(0.015625)"/>
       <path id="DejaVuSans-54" d="M -19 4666 
L 3928 4666 
L 3928 4134 
L 2272 4134 
L 2272 0 
L 1638 0 
L 1638 4134 
L -19 4134 
L -19 4666 
z
" transform="scale(0.015625)"/>
       <path id="DejaVuSans-72" d="M 2631 2963 
Q 2534 3019 2420 3045 
Q 2306 3072 2169 3072 
Q 1681 3072 1420 2755 
Q 1159 2438 1159 1844 
L 1159 0 
L 581 0 
L 581 3500 
L 1159 3500 
L 1159 2956 
Q 1341 3275 1631 3429 
Q 1922 3584 2338 3584 
Q 2397 3584 2469 3576 
Q 2541 3569 2628 3553 
L 2631 2963 
z
" transform="scale(0.015625)"/>
       <path id="DejaVuSans-41" d="M 2188 4044 
L 1331 1722 
L 3047 1722 
L 2188 4044 
z
M 1831 4666 
L 2547 4666 
L 4325 0 
L 3669 0 
L 3244 1197 
L 1141 1197 
L 716 0 
L 50 0 
L 1831 4666 
z
" transform="scale(0.015625)"/>
       <path id="DejaVuSans-43" d="M 4122 4306 
L 4122 3641 
Q 3803 3938 3442 4084 
Q 3081 4231 2675 4231 
Q 1875 4231 1450 3742 
Q 1025 3253 1025 2328 
Q 1025 1406 1450 917 
Q 1875 428 2675 428 
Q 3081 428 3442 575 
Q 3803 722 4122 1019 
L 4122 359 
Q 3791 134 3420 21 
Q 3050 -91 2638 -91 
Q 1578 -91 968 557 
Q 359 1206 359 2328 
Q 359 3453 968 4101 
Q 1578 4750 2638 4750 
Q 3056 4750 3426 4639 
Q 3797 4528 4122 4306 
z
" transform="scale(0.015625)"/>
       <path id="DejaVuSans-53" d="M 3425 4513 
L 3425 3897 
Q 3066 4069 2747 4153 
Q 2428 4238 2131 4238 
Q 1616 4238 1336 4038 
Q 1056 3838 1056 3469 
Q 1056 3159 1242 3001 
Q 1428 2844 1947 2747 
L 2328 2669 
Q 3034 2534 3370 2195 
Q 3706 1856 3706 1288 
Q 3706 609 3251 259 
Q 2797 -91 1919 -91 
Q 1588 -91 1214 -16 
Q 841 59 441 206 
L 441 856 
Q 825 641 1194 531 
Q 1563 422 1919 422 
Q 2459 422 2753 634 
Q 3047 847 3047 1241 
Q 3047 1584 2836 1778 
Q 2625 1972 2144 2069 
L 1759 2144 
Q 1053 2284 737 2584 
Q 422 2884 422 3419 
Q 422 4038 858 4394 
Q 1294 4750 2059 4750 
Q 2388 4750 2728 4690 
Q 3069 4631 3425 4513 
z
" transform="scale(0.015625)"/>
      </defs>
      <use xlink:href="#DejaVuSans-49"/>
      <use xlink:href="#DejaVuSans-42" transform="translate(29.492188 0)"/>
      <use xlink:href="#DejaVuSans-54" transform="translate(98.095703 0)"/>
      <use xlink:href="#DejaVuSans-72" transform="translate(144.429688 0)"/>
      <use xlink:href="#DejaVuSans-41" transform="translate(185.542969 0)"/>
      <use xlink:href="#DejaVuSans-43" transform="translate(252.201172 0)"/>
      <use xlink:href="#DejaVuSans-53" transform="translate(322.025391 0)"/>
     </g>
    </g>
    <g id="line2d_33">
     <path d="M 833.4075 88.509062 
L 853.4075 88.509062 
L 873.4075 88.509062 
" style="fill: none; stroke: #3a86ff; stroke-opacity: 0.95; stroke-width: 2.6; stroke-linecap: square"/>
    </g>
    <g id="text_9">
     <!-- FAST_ML -->
     <g transform="translate(889.4075 95.509062) scale(0.2 -0.2)">
      <defs>
       <path id="DejaVuSans-46" d="M 628 4666 
L 3309 4666 
L 3309 4134 
L 1259 4134 
L 1259 2759 
L 3109 2759 
L 3109 2228 
L 1259 2228 
L 1259 0 
L 628 0 
L 628 4666 
z
" transform="scale(0.015625)"/>
       <path id="DejaVuSans-5f" d="M 3263 -1063 
L 3263 -1509 
L -63 -1509 
L -63 -1063 
L 3263 -1063 
z
" transform="scale(0.015625)"/>
       <path id="DejaVuSans-4d" d="M 628 4666 
L 1569 4666 
L 2759 1491 
L 3956 4666 
L 4897 4666 
L 4897 0 
L 4281 0 
L 4281 4097 
L 3078 897 
L 2444 897 
L 1241 4097 
L 1241 0 
L 628 0 
L 628 4666 
z
" transform="scale(0.015625)"/>
       <path id="DejaVuSans-4c" d="M 628 4666 
L 1259 4666 
L 1259 531 
L 3531 531 
L 3531 0 
L 628 0 
L 628 4666 
z
" transform="scale(0.015625)"/>
      </defs>
      <use xlink:href="#DejaVuSans-46"/>
      <use xlink:href="#DejaVuSans-41" transform="translate(48.394531 0)"/>
      <use xlink:href="#DejaVuSans-53" transform="translate(116.802734 0)"/>
      <use xlink:href="#DejaVuSans-54" transform="translate(180.279297 0)"/>
      <use xlink:href="#DejaVuSans-5f" transform="translate(241.363281 0)"/>
      <use xlink:href="#DejaVuSans-4d" transform="translate(291.363281 0)"/>
      <use xlink:href="#DejaVuSans-4c" transform="translate(377.642578 0)"/>
     </g>
    </g>
    <g id="line2d_34">
     <path d="M 833.4075 118.421562 
L 853.4075 118.421562 
L 873.4075 118.421562 
" style="fill: none; stroke: #5ec64a; stroke-opacity: 0.95; stroke-width: 2.6; stroke-linecap: square"/>
    </g>
    <g id="text_10">
     <!-- FAST -->
     <g transform="translate(889.4075 125.421562) scale(0.2 -0.2)">
      <use xlink:href="#DejaVuSans-46"/>
      <use xlink:href="#DejaVuSans-41" transform="translate(48.394531 0)"/>
      <use xlink:href="#DejaVuSans-53" transform="translate(116.802734 0)"/>
      <use xlink:href="#DejaVuSans-54" transform="translate(180.279297 0)"/>
     </g>
    </g>
   </g>
  </g>
  <g id="axes_2">
   <g id="patch_8">
    <path d="M 73.849375 402.616019 
L 994.079375 402.616019 
L 994.079375 293.734743 
L 73.849375 293.734743 
z
" style="fill: #ffffff"/>
   </g>
   <g id="matplotlib.axis_3">
    <g id="xtick_10">
     <g id="line2d_35">
      <path d="M 159.633528 402.616019 
L 159.633528 293.734743 
" clip-path="url(#p85b95b30f0)" style="fill: none; stroke: #808080; stroke-opacity: 0.3; stroke-width: 0.8; stroke-linecap: square"/>
     </g>
     <g id="line2d_36">
      <g>
       <use xlink:href="#m0100959363" x="159.633528" y="402.616019" style="stroke: #000000; stroke-width: 0.8"/>
      </g>
     </g>
     <g id="text_11">
      <!-- 09-24 00 -->
      <g transform="translate(87.674643 461.925654) rotate(-30) scale(0.18 -0.18)">
       <defs>
        <path id="DejaVuSans-39" d="M 703 97 
L 703 672 
Q 941 559 1184 500 
Q 1428 441 1663 441 
Q 2288 441 2617 861 
Q 2947 1281 2994 2138 
Q 2813 1869 2534 1725 
Q 2256 1581 1919 1581 
Q 1219 1581 811 2004 
Q 403 2428 403 3163 
Q 403 3881 828 4315 
Q 1253 4750 1959 4750 
Q 2769 4750 3195 4129 
Q 3622 3509 3622 2328 
Q 3622 1225 3098 567 
Q 2575 -91 1691 -91 
Q 1453 -91 1209 -44 
Q 966 3 703 97 
z
M 1959 2075 
Q 2384 2075 2632 2365 
Q 2881 2656 2881 3163 
Q 2881 3666 2632 3958 
Q 2384 4250 1959 4250 
Q 1534 4250 1286 3958 
Q 1038 3666 1038 3163 
Q 1038 2656 1286 2365 
Q 1534 2075 1959 2075 
z
" transform="scale(0.015625)"/>
        <path id="DejaVuSans-2d" d="M 313 2009 
L 1997 2009 
L 1997 1497 
L 313 1497 
L 313 2009 
z
" transform="scale(0.015625)"/>
        <path id="DejaVuSans-34" d="M 2419 4116 
L 825 1625 
L 2419 1625 
L 2419 4116 
z
M 2253 4666 
L 3047 4666 
L 3047 1625 
L 3713 1625 
L 3713 1100 
L 3047 1100 
L 3047 0 
L 2419 0 
L 2419 1100 
L 313 1100 
L 313 1709 
L 2253 4666 
z
" transform="scale(0.015625)"/>
       </defs>
       <use xlink:href="#DejaVuSans-30"/>
       <use xlink:href="#DejaVuSans-39" transform="translate(63.623047 0)"/>
       <use xlink:href="#DejaVuSans-2d" transform="translate(127.246094 0)"/>
       <use xlink:href="#DejaVuSans-32" transform="translate(163.330078 0)"/>
       <use xlink:href="#DejaVuSans-34" transform="translate(226.953125 0)"/>
       <use xlink:href="#DejaVuSans-20" transform="translate(290.576172 0)"/>
       <use xlink:href="#DejaVuSans-30" transform="translate(322.363281 0)"/>
       <use xlink:href="#DejaVuSans-30" transform="translate(385.986328 0)"/>
      </g>
     </g>
    </g>
    <g id="xtick_11">
     <g id="line2d_37">
      <path d="M 253.216239 402.616019 
L 253.216239 293.734743 
" clip-path="url(#p85b95b30f0)" style="fill: none; stroke: #808080; stroke-opacity: 0.3; stroke-width: 0.8; stroke-linecap: square"/>
     </g>
     <g id="line2d_38">
      <g>
       <use xlink:href="#m0100959363" x="253.216239" y="402.616019" style="stroke: #000000; stroke-width: 0.8"/>
      </g>
     </g>
     <g id="text_12">
      <!-- 09-24 12 -->
      <g transform="translate(181.257355 461.925654) rotate(-30) scale(0.18 -0.18)">
       <use xlink:href="#DejaVuSans-30"/>
       <use xlink:href="#DejaVuSans-39" transform="translate(63.623047 0)"/>
       <use xlink:href="#DejaVuSans-2d" transform="translate(127.246094 0)"/>
       <use xlink:href="#DejaVuSans-32" transform="translate(163.330078 0)"/>
       <use xlink:href="#DejaVuSans-34" transform="translate(226.953125 0)"/>
       <use xlink:href="#DejaVuSans-20" transform="translate(290.576172 0)"/>
       <use xlink:href="#DejaVuSans-31" transform="translate(322.363281 0)"/>
       <use xlink:href="#DejaVuSans-32" transform="translate(385.986328 0)"/>
      </g>
     </g>
    </g>
    <g id="xtick_12">
     <g id="line2d_39">
      <path d="M 346.798951 402.616019 
L 346.798951 293.734743 
" clip-path="url(#p85b95b30f0)" style="fill: none; stroke: #808080; stroke-opacity: 0.3; stroke-width: 0.8; stroke-linecap: square"/>
     </g>
     <g id="line2d_40">
      <g>
       <use xlink:href="#m0100959363" x="346.798951" y="402.616019" style="stroke: #000000; stroke-width: 0.8"/>
      </g>
     </g>
     <g id="text_13">
      <!-- 09-25 00 -->
      <g transform="translate(274.840067 461.925654) rotate(-30) scale(0.18 -0.18)">
       <use xlink:href="#DejaVuSans-30"/>
       <use xlink:href="#DejaVuSans-39" transform="translate(63.623047 0)"/>
       <use xlink:href="#DejaVuSans-2d" transform="translate(127.246094 0)"/>
       <use xlink:href="#DejaVuSans-32" transform="translate(163.330078 0)"/>
       <use xlink:href="#DejaVuSans-35" transform="translate(226.953125 0)"/>
       <use xlink:href="#DejaVuSans-20" transform="translate(290.576172 0)"/>
       <use xlink:href="#DejaVuSans-30" transform="translate(322.363281 0)"/>
       <use xlink:href="#DejaVuSans-30" transform="translate(385.986328 0)"/>
      </g>
     </g>
    </g>
    <g id="xtick_13">
     <g id="line2d_41">
      <path d="M 440.381663 402.616019 
L 440.381663 293.734743 
" clip-path="url(#p85b95b30f0)" style="fill: none; stroke: #808080; stroke-opacity: 0.3; stroke-width: 0.8; stroke-linecap: square"/>
     </g>
     <g id="line2d_42">
      <g>
       <use xlink:href="#m0100959363" x="440.381663" y="402.616019" style="stroke: #000000; stroke-width: 0.8"/>
      </g>
     </g>
     <g id="text_14">
      <!-- 09-25 12 -->
      <g transform="translate(368.422779 461.925654) rotate(-30) scale(0.18 -0.18)">
       <use xlink:href="#DejaVuSans-30"/>
       <use xlink:href="#DejaVuSans-39" transform="translate(63.623047 0)"/>
       <use xlink:href="#DejaVuSans-2d" transform="translate(127.246094 0)"/>
       <use xlink:href="#DejaVuSans-32" transform="translate(163.330078 0)"/>
       <use xlink:href="#DejaVuSans-35" transform="translate(226.953125 0)"/>
       <use xlink:href="#DejaVuSans-20" transform="translate(290.576172 0)"/>
       <use xlink:href="#DejaVuSans-31" transform="translate(322.363281 0)"/>
       <use xlink:href="#DejaVuSans-32" transform="translate(385.986328 0)"/>
      </g>
     </g>
    </g>
    <g id="xtick_14">
     <g id="line2d_43">
      <path d="M 533.964375 402.616019 
L 533.964375 293.734743 
" clip-path="url(#p85b95b30f0)" style="fill: none; stroke: #808080; stroke-opacity: 0.3; stroke-width: 0.8; stroke-linecap: square"/>
     </g>
     <g id="line2d_44">
      <g>
       <use xlink:href="#m0100959363" x="533.964375" y="402.616019" style="stroke: #000000; stroke-width: 0.8"/>
      </g>
     </g>
     <g id="text_15">
      <!-- 09-26 00 -->
      <g transform="translate(462.005491 461.925654) rotate(-30) scale(0.18 -0.18)">
       <defs>
        <path id="DejaVuSans-36" d="M 2113 2584 
Q 1688 2584 1439 2293 
Q 1191 2003 1191 1497 
Q 1191 994 1439 701 
Q 1688 409 2113 409 
Q 2538 409 2786 701 
Q 3034 994 3034 1497 
Q 3034 2003 2786 2293 
Q 2538 2584 2113 2584 
z
M 3366 4563 
L 3366 3988 
Q 3128 4100 2886 4159 
Q 2644 4219 2406 4219 
Q 1781 4219 1451 3797 
Q 1122 3375 1075 2522 
Q 1259 2794 1537 2939 
Q 1816 3084 2150 3084 
Q 2853 3084 3261 2657 
Q 3669 2231 3669 1497 
Q 3669 778 3244 343 
Q 2819 -91 2113 -91 
Q 1303 -91 875 529 
Q 447 1150 447 2328 
Q 447 3434 972 4092 
Q 1497 4750 2381 4750 
Q 2619 4750 2861 4703 
Q 3103 4656 3366 4563 
z
" transform="scale(0.015625)"/>
       </defs>
       <use xlink:href="#DejaVuSans-30"/>
       <use xlink:href="#DejaVuSans-39" transform="translate(63.623047 0)"/>
       <use xlink:href="#DejaVuSans-2d" transform="translate(127.246094 0)"/>
       <use xlink:href="#DejaVuSans-32" transform="translate(163.330078 0)"/>
       <use xlink:href="#DejaVuSans-36" transform="translate(226.953125 0)"/>
       <use xlink:href="#DejaVuSans-20" transform="translate(290.576172 0)"/>
       <use xlink:href="#DejaVuSans-30" transform="translate(322.363281 0)"/>
       <use xlink:href="#DejaVuSans-30" transform="translate(385.986328 0)"/>
      </g>
     </g>
    </g>
    <g id="xtick_15">
     <g id="line2d_45">
      <path d="M 627.547087 402.616019 
L 627.547087 293.734743 
" clip-path="url(#p85b95b30f0)" style="fill: none; stroke: #808080; stroke-opacity: 0.3; stroke-width: 0.8; stroke-linecap: square"/>
     </g>
     <g id="line2d_46">
      <g>
       <use xlink:href="#m0100959363" x="627.547087" y="402.616019" style="stroke: #000000; stroke-width: 0.8"/>
      </g>
     </g>
     <g id="text_16">
      <!-- 09-26 12 -->
      <g transform="translate(555.588203 461.925654) rotate(-30) scale(0.18 -0.18)">
       <use xlink:href="#DejaVuSans-30"/>
       <use xlink:href="#DejaVuSans-39" transform="translate(63.623047 0)"/>
       <use xlink:href="#DejaVuSans-2d" transform="translate(127.246094 0)"/>
       <use xlink:href="#DejaVuSans-32" transform="translate(163.330078 0)"/>
       <use xlink:href="#DejaVuSans-36" transform="translate(226.953125 0)"/>
       <use xlink:href="#DejaVuSans-20" transform="translate(290.576172 0)"/>
       <use xlink:href="#DejaVuSans-31" transform="translate(322.363281 0)"/>
       <use xlink:href="#DejaVuSans-32" transform="translate(385.986328 0)"/>
      </g>
     </g>
    </g>
    <g id="xtick_16">
     <g id="line2d_47">
      <path d="M 721.129799 402.616019 
L 721.129799 293.734743 
" clip-path="url(#p85b95b30f0)" style="fill: none; stroke: #808080; stroke-opacity: 0.3; stroke-width: 0.8; stroke-linecap: square"/>
     </g>
     <g id="line2d_48">
      <g>
       <use xlink:href="#m0100959363" x="721.129799" y="402.616019" style="stroke: #000000; stroke-width: 0.8"/>
      </g>
     </g>
     <g id="text_17">
      <!-- 09-27 00 -->
      <g transform="translate(649.170915 461.925654) rotate(-30) scale(0.18 -0.18)">
       <defs>
        <path id="DejaVuSans-37" d="M 525 4666 
L 3525 4666 
L 3525 4397 
L 1831 0 
L 1172 0 
L 2766 4134 
L 525 4134 
L 525 4666 
z
" transform="scale(0.015625)"/>
       </defs>
       <use xlink:href="#DejaVuSans-30"/>
       <use xlink:href="#DejaVuSans-39" transform="translate(63.623047 0)"/>
       <use xlink:href="#DejaVuSans-2d" transform="translate(127.246094 0)"/>
       <use xlink:href="#DejaVuSans-32" transform="translate(163.330078 0)"/>
       <use xlink:href="#DejaVuSans-37" transform="translate(226.953125 0)"/>
       <use xlink:href="#DejaVuSans-20" transform="translate(290.576172 0)"/>
       <use xlink:href="#DejaVuSans-30" transform="translate(322.363281 0)"/>
       <use xlink:href="#DejaVuSans-30" transform="translate(385.986328 0)"/>
      </g>
     </g>
    </g>
    <g id="xtick_17">
     <g id="line2d_49">
      <path d="M 814.712511 402.616019 
L 814.712511 293.734743 
" clip-path="url(#p85b95b30f0)" style="fill: none; stroke: #808080; stroke-opacity: 0.3; stroke-width: 0.8; stroke-linecap: square"/>
     </g>
     <g id="line2d_50">
      <g>
       <use xlink:href="#m0100959363" x="814.712511" y="402.616019" style="stroke: #000000; stroke-width: 0.8"/>
      </g>
     </g>
     <g id="text_18">
      <!-- 09-27 12 -->
      <g transform="translate(742.753627 461.925654) rotate(-30) scale(0.18 -0.18)">
       <use xlink:href="#DejaVuSans-30"/>
       <use xlink:href="#DejaVuSans-39" transform="translate(63.623047 0)"/>
       <use xlink:href="#DejaVuSans-2d" transform="translate(127.246094 0)"/>
       <use xlink:href="#DejaVuSans-32" transform="translate(163.330078 0)"/>
       <use xlink:href="#DejaVuSans-37" transform="translate(226.953125 0)"/>
       <use xlink:href="#DejaVuSans-20" transform="translate(290.576172 0)"/>
       <use xlink:href="#DejaVuSans-31" transform="translate(322.363281 0)"/>
       <use xlink:href="#DejaVuSans-32" transform="translate(385.986328 0)"/>
      </g>
     </g>
    </g>
    <g id="xtick_18">
     <g id="line2d_51">
      <path d="M 908.295222 402.616019 
L 908.295222 293.734743 
" clip-path="url(#p85b95b30f0)" style="fill: none; stroke: #808080; stroke-opacity: 0.3; stroke-width: 0.8; stroke-linecap: square"/>
     </g>
     <g id="line2d_52">
      <g>
       <use xlink:href="#m0100959363" x="908.295222" y="402.616019" style="stroke: #000000; stroke-width: 0.8"/>
      </g>
     </g>
     <g id="text_19">
      <!-- 09-28 00 -->
      <g transform="translate(836.336338 461.925654) rotate(-30) scale(0.18 -0.18)">
       <defs>
        <path id="DejaVuSans-38" d="M 2034 2216 
Q 1584 2216 1326 1975 
Q 1069 1734 1069 1313 
Q 1069 891 1326 650 
Q 1584 409 2034 409 
Q 2484 409 2743 651 
Q 3003 894 3003 1313 
Q 3003 1734 2745 1975 
Q 2488 2216 2034 2216 
z
M 1403 2484 
Q 997 2584 770 2862 
Q 544 3141 544 3541 
Q 544 4100 942 4425 
Q 1341 4750 2034 4750 
Q 2731 4750 3128 4425 
Q 3525 4100 3525 3541 
Q 3525 3141 3298 2862 
Q 3072 2584 2669 2484 
Q 3125 2378 3379 2068 
Q 3634 1759 3634 1313 
Q 3634 634 3220 271 
Q 2806 -91 2034 -91 
Q 1263 -91 848 271 
Q 434 634 434 1313 
Q 434 1759 690 2068 
Q 947 2378 1403 2484 
z
M 1172 3481 
Q 1172 3119 1398 2916 
Q 1625 2713 2034 2713 
Q 2441 2713 2670 2916 
Q 2900 3119 2900 3481 
Q 2900 3844 2670 4047 
Q 2441 4250 2034 4250 
Q 1625 4250 1398 4047 
Q 1172 3844 1172 3481 
z
" transform="scale(0.015625)"/>
       </defs>
       <use xlink:href="#DejaVuSans-30"/>
       <use xlink:href="#DejaVuSans-39" transform="translate(63.623047 0)"/>
       <use xlink:href="#DejaVuSans-2d" transform="translate(127.246094 0)"/>
       <use xlink:href="#DejaVuSans-32" transform="translate(163.330078 0)"/>
       <use xlink:href="#DejaVuSans-38" transform="translate(226.953125 0)"/>
       <use xlink:href="#DejaVuSans-20" transform="translate(290.576172 0)"/>
       <use xlink:href="#DejaVuSans-30" transform="translate(322.363281 0)"/>
       <use xlink:href="#DejaVuSans-30" transform="translate(385.986328 0)"/>
      </g>
     </g>
    </g>
    <g id="text_20">
     <!-- Date -->
     <g transform="translate(507.672656 485.884129) scale(0.22 -0.22)">
      <defs>
       <path id="DejaVuSans-44" d="M 1259 4147 
L 1259 519 
L 2022 519 
Q 2988 519 3436 956 
Q 3884 1394 3884 2338 
Q 3884 3275 3436 3711 
Q 2988 4147 2022 4147 
L 1259 4147 
z
M 628 4666 
L 1925 4666 
Q 3281 4666 3915 4102 
Q 4550 3538 4550 2338 
Q 4550 1131 3912 565 
Q 3275 0 1925 0 
L 628 0 
L 628 4666 
z
" transform="scale(0.015625)"/>
       <path id="DejaVuSans-61" d="M 2194 1759 
Q 1497 1759 1228 1600 
Q 959 1441 959 1056 
Q 959 750 1161 570 
Q 1363 391 1709 391 
Q 2188 391 2477 730 
Q 2766 1069 2766 1631 
L 2766 1759 
L 2194 1759 
z
M 3341 1997 
L 3341 0 
L 2766 0 
L 2766 531 
Q 2569 213 2275 61 
Q 1981 -91 1556 -91 
Q 1019 -91 701 211 
Q 384 513 384 1019 
Q 384 1609 779 1909 
Q 1175 2209 1959 2209 
L 2766 2209 
L 2766 2266 
Q 2766 2663 2505 2880 
Q 2244 3097 1772 3097 
Q 1472 3097 1187 3025 
Q 903 2953 641 2809 
L 641 3341 
Q 956 3463 1253 3523 
Q 1550 3584 1831 3584 
Q 2591 3584 2966 3190 
Q 3341 2797 3341 1997 
z
" transform="scale(0.015625)"/>
      </defs>
      <use xlink:href="#DejaVuSans-44"/>
      <use xlink:href="#DejaVuSans-61" transform="translate(77.001953 0)"/>
      <use xlink:href="#DejaVuSans-74" transform="translate(138.28125 0)"/>
      <use xlink:href="#DejaVuSans-65" transform="translate(177.490234 0)"/>
     </g>
    </g>
   </g>
   <g id="matplotlib.axis_4">
    <g id="ytick_6">
     <g id="line2d_53">
      <path d="M 73.849375 402.616019 
L 994.079375 402.616019 
" clip-path="url(#p85b95b30f0)" style="fill: none; stroke: #808080; stroke-opacity: 0.3; stroke-width: 0.8; stroke-linecap: square"/>
     </g>
     <g id="line2d_54">
      <g>
       <use xlink:href="#maf2ed93afe" x="73.849375" y="402.616019" style="stroke: #000000; stroke-width: 0.8"/>
      </g>
     </g>
     <g id="text_21">
      <!-- 0 -->
      <g transform="translate(55.396875 409.454612) scale(0.18 -0.18)">
       <use xlink:href="#DejaVuSans-30"/>
      </g>
     </g>
    </g>
    <g id="ytick_7">
     <g id="line2d_55">
      <path d="M 73.849375 363.194228 
L 994.079375 363.194228 
" clip-path="url(#p85b95b30f0)" style="fill: none; stroke: #808080; stroke-opacity: 0.3; stroke-width: 0.8; stroke-linecap: square"/>
     </g>
     <g id="line2d_56">
      <g>
       <use xlink:href="#maf2ed93afe" x="73.849375" y="363.194228" style="stroke: #000000; stroke-width: 0.8"/>
      </g>
     </g>
     <g id="text_22">
      <!-- 25 -->
      <g transform="translate(43.944375 370.032822) scale(0.18 -0.18)">
       <use xlink:href="#DejaVuSans-32"/>
       <use xlink:href="#DejaVuSans-35" transform="translate(63.623047 0)"/>
      </g>
     </g>
    </g>
    <g id="ytick_8">
     <g id="line2d_57">
      <path d="M 73.849375 323.772438 
L 994.079375 323.772438 
" clip-path="url(#p85b95b30f0)" style="fill: none; stroke: #808080; stroke-opacity: 0.3; stroke-width: 0.8; stroke-linecap: square"/>
     </g>
     <g id="line2d_58">
      <g>
       <use xlink:href="#maf2ed93afe" x="73.849375" y="323.772438" style="stroke: #000000; stroke-width: 0.8"/>
      </g>
     </g>
     <g id="text_23">
      <!-- 50 -->
      <g transform="translate(43.944375 330.611032) scale(0.18 -0.18)">
       <use xlink:href="#DejaVuSans-35"/>
       <use xlink:href="#DejaVuSans-30" transform="translate(63.623047 0)"/>
      </g>
     </g>
    </g>
    <g id="text_24">
     <!-- vent  (chi*S) -->
     <g transform="translate(35.369063 416.8721) rotate(-90) scale(0.22 -0.22)">
      <defs>
       <path id="DejaVuSans-76" d="M 191 3500 
L 800 3500 
L 1894 563 
L 2988 3500 
L 3597 3500 
L 2284 0 
L 1503 0 
L 191 3500 
z
" transform="scale(0.015625)"/>
       <path id="DejaVuSans-63" d="M 3122 3366 
L 3122 2828 
Q 2878 2963 2633 3030 
Q 2388 3097 2138 3097 
Q 1578 3097 1268 2742 
Q 959 2388 959 1747 
Q 959 1106 1268 751 
Q 1578 397 2138 397 
Q 2388 397 2633 464 
Q 2878 531 3122 666 
L 3122 134 
Q 2881 22 2623 -34 
Q 2366 -91 2075 -91 
Q 1284 -91 818 406 
Q 353 903 353 1747 
Q 353 2603 823 3093 
Q 1294 3584 2113 3584 
Q 2378 3584 2631 3529 
Q 2884 3475 3122 3366 
z
" transform="scale(0.015625)"/>
       <path id="DejaVuSans-68" d="M 3513 2113 
L 3513 0 
L 2938 0 
L 2938 2094 
Q 2938 2591 2744 2837 
Q 2550 3084 2163 3084 
Q 1697 3084 1428 2787 
Q 1159 2491 1159 1978 
L 1159 0 
L 581 0 
L 581 4863 
L 1159 4863 
L 1159 2956 
Q 1366 3272 1645 3428 
Q 1925 3584 2291 3584 
Q 2894 3584 3203 3211 
Q 3513 2838 3513 2113 
z
" transform="scale(0.015625)"/>
       <path id="DejaVuSans-2a" d="M 3009 3897 
L 1888 3291 
L 3009 2681 
L 2828 2375 
L 1778 3009 
L 1778 1831 
L 1422 1831 
L 1422 3009 
L 372 2375 
L 191 2681 
L 1313 3291 
L 191 3897 
L 372 4206 
L 1422 3572 
L 1422 4750 
L 1778 4750 
L 1778 3572 
L 2828 4206 
L 3009 3897 
z
" transform="scale(0.015625)"/>
      </defs>
      <use xlink:href="#DejaVuSans-76"/>
      <use xlink:href="#DejaVuSans-65" transform="translate(59.179688 0)"/>
      <use xlink:href="#DejaVuSans-6e" transform="translate(120.703125 0)"/>
      <use xlink:href="#DejaVuSans-74" transform="translate(184.082031 0)"/>
      <use xlink:href="#DejaVuSans-20" transform="translate(223.291016 0)"/>
      <use xlink:href="#DejaVuSans-20" transform="translate(255.078125 0)"/>
      <use xlink:href="#DejaVuSans-28" transform="translate(286.865234 0)"/>
      <use xlink:href="#DejaVuSans-63" transform="translate(325.878906 0)"/>
      <use xlink:href="#DejaVuSans-68" transform="translate(380.859375 0)"/>
      <use xlink:href="#DejaVuSans-69" transform="translate(444.238281 0)"/>
      <use xlink:href="#DejaVuSans-2a" transform="translate(472.021484 0)"/>
      <use xlink:href="#DejaVuSans-53" transform="translate(522.021484 0)"/>
      <use xlink:href="#DejaVuSans-29" transform="translate(585.498047 0)"/>
     </g>
    </g>
   </g>
   <g id="line2d_59">
    <path d="M 73.849375 395.092728 
L 81.647934 394.931295 
L 89.446494 394.791156 
L 97.245053 394.752268 
L 105.043612 394.742868 
L 112.842172 394.705803 
L 120.640731 394.374441 
L 128.43929 393.858235 
L 136.23785 393.340863 
L 144.036409 394.324862 
L 151.834968 394.015053 
L 159.633528 393.514928 
L 167.432087 392.759121 
L 175.230646 391.978278 
L 183.029206 391.390919 
L 190.827765 391.200716 
L 198.626324 391.092506 
L 206.424883 391.231397 
L 214.223443 391.239556 
L 222.022002 391.348665 
L 229.820561 391.851885 
L 237.619121 392.118635 
L 245.41768 392.315254 
L 253.216239 393.247418 
L 261.014799 393.957003 
L 268.813358 394.423376 
L 276.611917 395.006235 
L 284.410477 395.399606 
L 292.209036 395.585831 
L 300.007595 395.820501 
L 307.806155 396.07462 
L 315.604714 396.257553 
L 323.403273 396.300336 
L 331.201833 395.628067 
L 339.000392 395.903296 
L 346.798951 396.193517 
L 354.597511 396.498046 
L 362.39607 396.424271 
L 370.194629 396.208701 
L 377.993189 395.950698 
L 385.791748 396.038643 
L 393.590307 396.411962 
L 401.388867 396.809686 
L 409.187426 397.457349 
L 416.985985 397.914406 
L 424.784544 400.086967 
L 432.583104 399.915001 
L 440.381663 399.514314 
L 448.180222 399.028046 
L 455.978782 398.585029 
L 463.777341 398.101153 
L 471.5759 397.883826 
L 479.37446 397.800884 
L 487.173019 398.024717 
L 494.971578 398.05901 
L 502.770138 397.877248 
L 510.568697 397.44421 
L 518.367256 396.319851 
L 526.165816 395.477466 
L 533.964375 395.05948 
L 541.762934 394.320846 
L 549.561494 393.730485 
L 557.360053 393.423888 
L 565.158612 393.488771 
L 572.957172 393.548738 
L 580.755731 393.776845 
L 588.55429 394.201913 
L 596.35285 394.497289 
L 604.151409 394.453758 
L 611.949968 393.73731 
L 619.748528 393.53111 
L 627.547087 392.752155 
L 635.345646 391.595611 
L 643.144206 390.586428 
L 650.942765 388.944071 
L 658.741324 387.209682 
L 666.539883 385.738581 
L 674.338443 384.033914 
L 682.137002 381.819154 
L 689.935561 379.481313 
L 697.734121 375.918228 
L 705.53268 371.621094 
L 713.331239 367.979708 
L 721.129799 365.375591 
L 728.928358 363.069475 
L 736.726917 357.083217 
L 744.525477 353.800565 
L 752.324036 304.56797 
L 760.122595 304.730064 
L 767.921155 304.416854 
L 775.719714 304.553503 
L 783.518273 305.960473 
L 791.316833 306.778781 
L 799.115392 309.056379 
L 806.913951 305.105526 
L 814.712511 302.520697 
L 822.51107 300.773984 
L 830.309629 299.387773 
L 838.108189 298.916367 
L 845.906748 299.120213 
L 853.705307 300.528524 
L 861.503867 304.113154 
L 869.302426 307.444234 
L 877.100985 310.132466 
L 884.899544 402.548833 
L 892.698104 313.132224 
L 900.496663 315.641856 
L 908.295222 316.93788 
L 916.093782 318.560642 
L 923.892341 320.242132 
L 931.6909 322.151348 
L 939.48946 324.681077 
L 947.288019 327.569137 
L 955.086578 330.433022 
L 962.885138 333.24713 
L 970.683697 335.401397 
L 978.482256 337.161169 
L 986.280816 336.052859 
L 994.079375 334.417819 
" clip-path="url(#p85b95b30f0)" style="fill: none; stroke: #16a34a; stroke-opacity: 0.95; stroke-width: 3; stroke-linecap: square"/>
   </g>
   <g id="line2d_60">
    <path d="M 73.849375 397.05355 
L 81.647934 397.072229 
L 89.446494 396.799101 
L 97.245053 396.24654 
L 105.043612 395.177057 
L 112.842172 394.532282 
L 120.640731 394.592792 
L 128.43929 394.91177 
L 136.23785 395.528128 
L 144.036409 394.988183 
L 151.834968 394.708434 
L 159.633528 394.490461 
L 167.432087 394.825911 
L 175.230646 394.322011 
L 183.029206 393.071178 
L 190.827765 392.068957 
L 198.626324 390.983738 
L 206.424883 390.533681 
L 214.223443 390.595351 
L 222.022002 390.874375 
L 229.820561 391.460243 
L 237.619121 389.987617 
L 245.41768 390.465736 
L 253.216239 390.310528 
L 261.014799 390.83197 
L 268.813358 390.49206 
L 276.611917 390.240772 
L 284.410477 390.888186 
L 292.209036 391.19806 
L 300.007595 391.93156 
L 307.806155 392.901511 
L 315.604714 394.067804 
L 323.403273 394.168906 
L 331.201833 392.771367 
L 339.000392 393.133659 
L 346.798951 393.358604 
L 354.597511 393.066582 
L 362.39607 392.54792 
L 370.194629 391.961927 
L 377.993189 391.574852 
L 385.791748 391.220223 
L 393.590307 391.96642 
L 401.388867 392.321508 
L 409.187426 392.973321 
L 416.985985 393.819944 
L 424.784544 394.750088 
L 432.583104 395.208167 
L 440.381663 395.120927 
L 448.180222 395.055577 
L 455.978782 394.926284 
L 463.777341 395.485559 
L 471.5759 394.009099 
L 479.37446 393.345581 
L 487.173019 392.160634 
L 494.971578 390.81046 
L 502.770138 390.440787 
L 510.568697 389.682928 
L 518.367256 390.922011 
L 526.165816 391.304192 
L 533.964375 392.02753 
L 541.762934 391.280349 
L 549.561494 391.632299 
L 557.360053 390.753554 
L 565.158612 390.568482 
L 572.957172 388.011827 
L 580.755731 388.262644 
L 588.55429 388.311187 
L 596.35285 386.983789 
L 604.151409 388.389972 
L 611.949968 388.59652 
L 619.748528 388.596941 
L 627.547087 387.162885 
L 635.345646 386.886287 
L 643.144206 385.475074 
L 650.942765 385.622803 
L 658.741324 382.902695 
L 666.539883 383.140843 
L 674.338443 383.242992 
L 682.137002 380.408348 
L 689.935561 380.79297 
L 697.734121 379.365705 
L 705.53268 378.907825 
L 713.331239 376.370819 
L 721.129799 371.709498 
L 728.928358 369.506025 
L 736.726917 368.007896 
L 744.525477 357.678598 
L 752.324036 357.764014 
L 760.122595 356.931354 
L 767.921155 355.128671 
L 775.719714 354.958643 
L 783.518273 354.075949 
L 791.316833 354.042079 
L 799.115392 356.477156 
L 806.913951 358.630475 
L 814.712511 361.189596 
L 822.51107 361.556444 
L 830.309629 363.027525 
L 838.108189 363.214136 
L 845.906748 363.575802 
L 853.705307 364.828953 
L 861.503867 367.551565 
L 869.302426 369.590282 
L 877.100985 371.318624 
L 884.899544 374.595466 
L 892.698104 374.739159 
L 900.496663 376.079482 
L 908.295222 377.330132 
L 916.093782 379.038023 
L 923.892341 380.416533 
L 931.6909 381.329731 
L 939.48946 382.464837 
L 947.288019 383.493239 
L 955.086578 384.583453 
L 962.885138 384.918694 
L 970.683697 384.379019 
L 978.482256 384.578414 
L 986.280816 381.820868 
L 994.079375 381.65206 
" clip-path="url(#p85b95b30f0)" style="fill: none; stroke: #2563eb; stroke-opacity: 0.95; stroke-width: 3; stroke-linecap: square"/>
   </g>
   <g id="patch_9">
    <path d="M 73.849375 402.616019 
L 73.849375 293.734743 
" style="fill: none; stroke: #000000; stroke-width: 0.8; stroke-linejoin: miter; stroke-linecap: square"/>
   </g>
   <g id="patch_10">
    <path d="M 994.079375 402.616019 
L 994.079375 293.734743 
" style="fill: none; stroke: #000000; stroke-width: 0.8; stroke-linejoin: miter; stroke-linecap: square"/>
   </g>
   <g id="patch_11">
    <path d="M 73.849375 402.616019 
L 994.079375 402.616019 
" style="fill: none; stroke: #000000; stroke-width: 0.8; stroke-linejoin: miter; stroke-linecap: square"/>
   </g>
   <g id="patch_12">
    <path d="M 73.849375 293.734743 
L 994.079375 293.734743 
" style="fill: none; stroke: #000000; stroke-width: 0.8; stroke-linejoin: miter; stroke-linecap: square"/>
   </g>
  </g>
 </g>
 <defs>
  <clipPath id="pc5d7a56d20">
   <rect x="73.849375" y="32.955937" width="920.23" height="239.538806"/>
  </clipPath>
  <clipPath id="p85b95b30f0">
   <rect x="73.849375" y="293.734743" width="920.23" height="108.881275"/>
  </clipPath>
 </defs>
</svg>
